<svg xmlns="http://www.w3.org/2000/svg" viewBox="0 0 152.633 49.107"><defs><style>.cls-1{fill:#ffe100;}.cls-2{fill:#dd0716;}.cls-3{fill:#363480;}</style></defs><title>logo_joycal_color</title><g id="レイヤー_2" data-name="レイヤー 2"><g id="レイヤー_1-2" data-name="レイヤー 1"><rect class="cls-1" x="113.486" y="1.41" width="2.577" height="12.142" transform="translate(98.098 121.284) rotate(-85.392)"/><path class="cls-1" d="M122.207,2.185a1.147,1.147,0,1,0-1.749.876l-3.478,2.222-1.429-2.574a1.152,1.152,0,1,0-.832-.046l-1.772,2.3-3.122-2.789a1.149,1.149,0,1,0-.72.1l-.2,2.49,12.1.974.2-2.5A1.147,1.147,0,0,0,122.207,2.185Z"/><circle class="cls-2" cx="113.869" cy="21.178" r="4.081" transform="translate(83.589 132.972) rotate(-85.38)"/><path class="cls-2" d="M114.6,12.91c4.185.338,6.2,3.68,5.91,7.258,0,0-.681,8.594-1.321,16.623a6.118,6.118,0,0,1,8.078.783L128.657,20.1q.474-5.893-2.778-8.912T114.967,7.555q-7.132-.575-11.1,2.048a9.326,9.326,0,0,0-3.728,4.829l-8.183-.665,7.338,5.921-1.251,15.53a6.122,6.122,0,0,1,8.1.523l1.339-16.624C107.778,15.416,110.21,12.557,114.6,12.91Z"/><path class="cls-2" d="M123.068,36.882a6.122,6.122,0,1,0,5.611,6.595A6.125,6.125,0,0,0,123.068,36.882Zm3.779,6.447a4.285,4.285,0,1,1-3.927-4.616A4.285,4.285,0,0,1,126.848,43.328Z"/><circle class="cls-2" cx="122.577" cy="42.984" r="3.124" transform="translate(69.888 161.713) rotate(-85.394)"/><path class="cls-2" d="M102.117,35.369a6.122,6.122,0,1,0,5.61,6.594A6.122,6.122,0,0,0,102.117,35.369Zm3.779,6.445a4.285,4.285,0,1,1-3.927-4.614A4.285,4.285,0,0,1,105.9,41.814Z"/><circle class="cls-2" cx="101.625" cy="41.47" r="3.124" transform="translate(52.137 139.442) rotate(-85.399)"/><path class="cls-2" d="M5.791,22.187H16.978V37.163a28.692,28.692,0,0,1-.514,6.677,4.906,4.906,0,0,1-2.358,2.912,8.528,8.528,0,0,1-4.443,1.1,11.113,11.113,0,0,1-6.1-1.687A8.206,8.206,0,0,1,0,41.581a11.849,11.849,0,0,0,2.415.2q2.151,0,2.763-.653a4.026,4.026,0,0,0,.612-2.64Z"/><path class="cls-2" d="M34.445,32.216a2.876,2.876,0,0,1,0,3.79,2.516,2.516,0,0,1-3.59,0,2.88,2.88,0,0,1,0-3.79,2.516,2.516,0,0,1,3.59,0Zm7.39,11.831A12.651,12.651,0,0,0,45.6,34.79,12.881,12.881,0,0,0,32.643,21.782,12.882,12.882,0,0,0,19.7,34.79a12.649,12.649,0,0,0,3.765,9.257,12.434,12.434,0,0,0,9.177,3.8A12.454,12.454,0,0,0,41.835,44.047Z"/><path class="cls-2" d="M64.315,47.438H53.129V36.419L43.5,22.187H54.816l3.906,5.726,3.889-5.726H73.93L64.315,36.419Z"/><path class="cls-2" d="M95.522,24.447l-4.683,8.92a13.754,13.754,0,0,0-4.535-.713q-3.557,0-3.557,1.938a1.594,1.594,0,0,0,.993,1.447,6.2,6.2,0,0,0,2.829.522,9.465,9.465,0,0,0,4.27-.893l4.683,9.564a17.709,17.709,0,0,1-4.8,1.9,21.967,21.967,0,0,1-5.378.712q-6.438,0-10.251-3.714a12.26,12.26,0,0,1-3.814-9.143,12.436,12.436,0,0,1,3.972-9.473,14.156,14.156,0,0,1,10.093-3.732,22.073,22.073,0,0,1,5.47.72A15.825,15.825,0,0,1,95.522,24.447Z"/><path class="cls-2" d="M130.742,47.438V22.187h11.187V41.1h9.8v6.336Z"/><polygon class="cls-3" points="6.06 18.481 11.873 18.481 11.873 16.723 9.157 16.723 9.157 15.86 11.048 15.86 11.048 14.102 9.157 14.102 9.157 13.235 11.873 13.235 11.873 11.478 6.06 11.478 6.06 18.481"/><path class="cls-3" d="M17.191,12.91a2.3,2.3,0,0,0-1.712.737v-.692H12.643v5.526h2.835V14.749a.9.9,0,0,1,.51-.178c.349,0,.523.23.523.688v3.222h2.68V15.049a2.226,2.226,0,0,0-.517-1.6A1.958,1.958,0,0,0,17.191,12.91Z"/><path class="cls-3" d="M20.833,12.95v3.863a1.343,1.343,0,0,1-.146.741.551.551,0,0,1-.482.2,1.608,1.608,0,0,1-.464-.083v2.107a2.94,2.94,0,0,0,3.173-.547,3.246,3.246,0,0,0,.755-2.33V12.95a3.059,3.059,0,0,1-1.372.317A4.048,4.048,0,0,1,20.833,12.95Z"/><path class="cls-3" d="M27.727,12.837a3.027,3.027,0,0,0-2.175.8,2.725,2.725,0,0,0-.839,2.071,2.687,2.687,0,0,0,.851,2.063,3.384,3.384,0,0,0,4.35,0,2.7,2.7,0,0,0,.841-2.06,2.724,2.724,0,0,0-.841-2.071A3.05,3.05,0,0,0,27.727,12.837Zm.455,3.268a.617.617,0,0,1-.455.174.6.6,0,0,1-.447-.174.691.691,0,0,1,0-.912.6.6,0,0,1,.447-.177.617.617,0,0,1,.455.174.686.686,0,0,1,0,.914Z"/><polygon class="cls-3" points="34.172 14.426 33.506 12.953 30.684 12.953 32.63 17.34 31.492 20.028 34.576 20.028 37.563 12.953 34.809 12.953 34.172 14.426"/><path class="cls-3" d="M45.382,14.378a3.81,3.81,0,0,1,1.257.2l1.3-2.474a4.378,4.378,0,0,0-1.306-.539,6.123,6.123,0,0,0-1.516-.2,3.922,3.922,0,0,0-2.8,1.035,3.446,3.446,0,0,0-1.1,2.627,3.4,3.4,0,0,0,1.058,2.535,3.9,3.9,0,0,0,2.843,1.03,6.077,6.077,0,0,0,1.491-.2,4.89,4.89,0,0,0,1.331-.527l-1.3-2.652a2.624,2.624,0,0,1-1.184.249,1.71,1.71,0,0,1-.785-.146.438.438,0,0,1-.275-.4Q44.395,14.377,45.382,14.378Z"/><path class="cls-3" d="M51.36,12.91a5.605,5.605,0,0,0-2.726.655v1.661a3.363,3.363,0,0,1,1.6-.44,1.376,1.376,0,0,1,.824.217.7.7,0,0,1,.3.6,3.645,3.645,0,0,0-.968-.129,2.024,2.024,0,0,0-1.367.448,1.453,1.453,0,0,0-.524,1.158,1.384,1.384,0,0,0,.423,1.035,1.45,1.45,0,0,0,1.055.41,2.291,2.291,0,0,0,1.381-.459v.414h2.837V15.424a2.424,2.424,0,0,0-.689-1.9A3.128,3.128,0,0,0,51.36,12.91Zm-.009,4.349a.659.659,0,0,1-.441.152.611.611,0,0,1-.424-.15.487.487,0,0,1-.168-.377.436.436,0,0,1,.156-.349.612.612,0,0,1,.413-.133,1.478,1.478,0,0,1,.463.087Z"/><path class="cls-3" d="M59.635,12.91a1.718,1.718,0,0,0-1.569,1.256V12.955H55.23v5.526h2.836v-2.06a1.687,1.687,0,0,1,.423-1.331,1.52,1.52,0,0,0,1.146.5,1.274,1.274,0,0,0,.953-.374,1.349,1.349,0,0,0,.365-.979,1.3,1.3,0,0,0-.372-.955A1.273,1.273,0,0,0,59.635,12.91Z"/><polygon class="cls-3" points="67.885 11.478 64.783 11.478 64.783 18.481 70.602 18.481 70.602 16.723 67.885 16.723 67.885 11.478"/><path class="cls-3" d="M71.213,12.95v5.525h2.836V12.95a2.735,2.735,0,0,1-1.382.317A2.932,2.932,0,0,1,71.213,12.95Z"/><path class="cls-3" d="M76.2,12.223a3.357,3.357,0,0,0-.81,2.4h-.61v1.166h.61v2.69h2.841v-2.69H79.84V14.62H78.234a.812.812,0,0,1,.188-.559.665.665,0,0,1,.524-.212,1.173,1.173,0,0,1,.895.5V11.569a5.913,5.913,0,0,0-1.409-.206A2.913,2.913,0,0,0,76.2,12.223Z"/><path class="cls-3" d="M83.611,16.733a1.305,1.305,0,0,1-.523-.66h2.9a4.294,4.294,0,0,0-.193-1.377,2.686,2.686,0,0,0-1.568-1.638,3.308,3.308,0,0,0-1.217-.221,2.869,2.869,0,0,0-2.09.785,2.706,2.706,0,0,0-.8,2.028,2.717,2.717,0,0,0,.875,2.108,3.3,3.3,0,0,0,2.318.8,3.17,3.17,0,0,0,2.68-1.22V16.37a2.03,2.03,0,0,1-1.533.6A1.514,1.514,0,0,1,83.611,16.733Zm-.5-2.282a.577.577,0,0,1,.454-.224.591.591,0,0,1,.484.232,1.086,1.086,0,0,1,.2.645H82.918A.965.965,0,0,1,83.112,14.451Z"/><circle class="cls-3" cx="22.162" cy="10.952" r="1.834"/><circle class="cls-3" cx="72.539" cy="10.952" r="1.834"/><path class="cls-2" d="M152.239,25.573A3.237,3.237,0,1,1,149,22.336,3.24,3.24,0,0,1,152.239,25.573ZM149,21.942a3.631,3.631,0,1,0,3.63,3.631A3.635,3.635,0,0,0,149,21.942Z"/><path class="cls-2" d="M150.516,28.1a5.543,5.543,0,0,0-.363-1.083,3.477,3.477,0,0,0-.414-.813.832.832,0,0,0-.346-.276.935.935,0,0,0-.357-.064h-1.078v1.424a4.861,4.861,0,0,0,.054.812h-.827a5.576,5.576,0,0,0,.054-.809v-3.54a6.3,6.3,0,0,0-.054-.809q.325.019.788.019h1.521a1.989,1.989,0,0,1,.842.154,1.182,1.182,0,0,1,.7,1.174,1.288,1.288,0,0,1-.36.972,1.206,1.206,0,0,1-.454.279c-.074.026-.166.053-.273.08a.791.791,0,0,1,.3.164,2.053,2.053,0,0,1,.379.563q.248.5.508,1.117.195.43.3.635Zm-2.558-2.862h1.418a.975.975,0,0,0,.576-.174.809.809,0,0,0,.323-.708.752.752,0,0,0-.2-.55.9.9,0,0,0-.668-.219h-1.45Z"/></g></g></svg>